# xmcd
#
# Track frame offsets:
#	150
#	11842
#	23252
#	33398
#	43135
#	53379
#	63421
#	73861
#	84213
#	93957
#	102800
#	113077
#	123119
#	133459
#	143053
#	153720
#	164052
#	174594
#	185847
#	196203
#	206937
#	216537
#	226618
#	238610
#	249838
#
# Disc length: 3459 seconds
#
# Revision: 0
# Processed by: cddbd v1.5.2PL0 Copyright (c) Steve Scherf et al.
# Submitted via: EasyCDDAExtractor 8.2.3.1
#
DISCID=5d0d8119
DTITLE=Jimmy Bryant - Frettin' Fingers_The Lightning Guitar Of J B_cd1
DYEAR=1900
DGENRE=Guitar
TTITLE0=Bryant's Boogie
TTITLE1=Red Headed Polka
TTITLE2=Railroadin'
TTITLE3=Stainless Steel
TTITLE4=T-Bone Rag
TTITLE5=Truck Driver's Ride
TTITLE6=Liberty Bell Polka
TTITLE7=Bryant's Shuffle
TTITLE8=Yodeling Guitar
TTITLE9=Georgia Steel Guitar
TTITLE10=Pickin' The Chicken
TTITLE11=Comin' On
TTITLE12=Lover
TTITLE13=Seranade To A Frog
TTITLE14=Bryant's Bounce
TTITLE15=Whistle Stop
TTITLE16=Hometown Polka
TTITLE17=Jammin' With Jimmy
TTITLE18=Two Of A Kind
TTITLE19=Old Joe Clark
TTITLE20=Arkansas Traveler
TTITLE21=Country Capers
TTITLE22=Low Man On A Totem Pole
TTITLE23=Cotton Pickin'
TTITLE24=Sleepwalker's Lullaby
EXTD=
EXTT0=
EXTT1=
EXTT2=
EXTT3=
EXTT4=
EXTT5=
EXTT6=
EXTT7=
EXTT8=
EXTT9=
EXTT10=
EXTT11=
EXTT12=
EXTT13=
EXTT14=
EXTT15=
EXTT16=
EXTT17=
EXTT18=
EXTT19=
EXTT20=
EXTT21=
EXTT22=
EXTT23=
EXTT24=
PLAYORDER=
